HIERARCHY
ROOT Hips
{
	OFFSET 0.00000 0.00000 0.00000
	CHANNELS 6 Xposition Yposition Zposition Zrotation Yrotation Xrotation 
	JOINT LHipJoint
	{
		OFFSET 0 0 0
		CHANNELS 3 Zrotation Yrotation Xrotation
		JOINT LeftHip
		{
			OFFSET 1.85742 -1.74412 1.01653
			CHANNELS 3 Zrotation Yrotation Xrotation
			JOINT LeftKnee
			{
				OFFSET 2.54803 -7.00067 0.00000
				CHANNELS 3 Zrotation Yrotation Xrotation
				JOINT LeftAnkle
				{
					OFFSET 2.51202 -6.90173 0.00000
					CHANNELS 3 Zrotation Yrotation Xrotation
					JOINT LeftToe
					{
						OFFSET 0.17547 -0.48209 1.64281
						CHANNELS 3 Zrotation Yrotation Xrotation
						End Site
						{
							OFFSET 0.00000 -0.00000 0.86587
						}
					}
				}
			}
		}
	}
	JOINT RHipJoint
	{
		OFFSET 0 0 0
		CHANNELS 3 Zrotation Yrotation Xrotation
		JOINT RightHip
		{
			OFFSET -1.95533 -1.74413 1.01654
			CHANNELS 3 Zrotation Yrotation Xrotation
			JOINT RightKnee
			{
				OFFSET -2.49465 -6.85400 0.00000
				CHANNELS 3 Zrotation Yrotation Xrotation
				JOINT RightAnkle
				{
					OFFSET -2.54783 -7.00010 0.00000
					CHANNELS 3 Zrotation Yrotation Xrotation
					JOINT RightToe
					{
						OFFSET -0.18513 -0.50864 1.69288
						CHANNELS 3 Zrotation Yrotation Xrotation
						End Site
						{
							OFFSET -0.00000 -0.00000 0.89242
						}
					}
				}
			}
		}
	}
	JOINT lowerback
	{
		OFFSET 0 0 0
		CHANNELS 3 Zrotation Yrotation Xrotation
		JOINT Chest
		{
			OFFSET 0.02173 2.16290 -0.15998
			CHANNELS 3 Zrotation Yrotation Xrotation
			JOINT Chest2
			{
				OFFSET 0.00940 2.17323 -0.00467
				CHANNELS 3 Zrotation Yrotation Xrotation
				JOINT lowerneck
				{
					OFFSET 0 0 0
					CHANNELS 3 Zrotation Yrotation Xrotation
					JOINT Neck
					{
						OFFSET 0.01475 1.85823 0.31113
						CHANNELS 3 Zrotation Yrotation Xrotation
						JOINT Head
						{
							OFFSET 0.01902 1.88783 -0.37187
							CHANNELS 3 Zrotation Yrotation Xrotation
							End Site
							{
								OFFSET 0.00489 1.93211 -0.16169
							}
						}
					}
				}
				JOINT LeftCollar
				{
					OFFSET 0 0 0
					CHANNELS 3 Zrotation Yrotation Xrotation
					JOINT LeftShoulder
					{
						OFFSET 3.34199 1.32384 -0.07862
CHANNELS 3 Zrotation Xrotation Yrotation
						JOINT LeftElbow
						{
OFFSET 0 -5.279500 0.000000
CHANNELS 3 Zrotation Xrotation Yrotation
							JOINT LeftWrist
							{
OFFSET 0 -3.535040 0.000000
CHANNELS 3 Zrotation Xrotation Yrotation
								JOINT lhand
								{
									OFFSET 0 0 0
CHANNELS 3 Zrotation Xrotation Yrotation
									JOINT LFingers
									{
OFFSET 0 -0.667950 0.000000
CHANNELS 3 Zrotation Xrotation Yrotation
										End Site
										{
OFFSET 0 -0.538520 0.000000
										}
									}
								}
								JOINT LThumb
								{
OFFSET 0 0.000000 0.000000
CHANNELS 3 Zrotation Xrotation Yrotation
									End Site
									{
OFFSET 0 -0.546740 0.546740
									}
								}
							}
						}
					}
				}
				JOINT RightCollar
				{
					OFFSET 0 0 0
					CHANNELS 3 Zrotation Yrotation Xrotation
					JOINT RightShoulder
					{
						OFFSET -3.16149 1.45719 -0.50507
CHANNELS 3 Zrotation Xrotation Yrotation
						JOINT RightElbow
						{
OFFSET 0 -5.250350 0.000000
CHANNELS 3 Zrotation Xrotation Yrotation
							JOINT RightWrist
							{
OFFSET 0 -3.588840 0.000000
CHANNELS 3 Zrotation Xrotation Yrotation
								JOINT rhand
								{
									OFFSET 0 0 0
CHANNELS 3 Zrotation Xrotation Yrotation
									JOINT RFingers
									{
OFFSET 0 -0.779240 0.000000
CHANNELS 3 Zrotation Xrotation Yrotation
										End Site
										{
OFFSET 0 -0.628240 0.000000
										}
									}
								}
								JOINT RThumb
								{
OFFSET 0 0.000000 0.000000
CHANNELS 3 Zrotation Xrotation Yrotation
									End Site
									{
OFFSET 0 -0.637830 0.637830
									}
								}
							}
						}
					}
				}
			}
		}
	}
}
MOTION
Frames: 6
Frame Time: 0.008333333333333333
-7.999100 17.437800 -1.165400 -51.588600 87.587800 -49.057400 0.000000 0.000000 0.000000 -16.984500 -0.768200 -6.967200 2.529100 9.890500 28.623000 0.708300 3.298900 -17.430900 0.060800 -1.590900 -4.376400 0.000000 0.000000 0.000000 24.863900 22.309700 -1.731600 -1.131500 -6.756100 18.994800 -3.773800 -27.531100 -53.016900 -6.733600 -15.103400 47.859600 2.915800 1.209600 -1.301100 0.731300 1.638500 -2.097000 -0.881200 0.794400 -1.361700 0.230300 -2.134400 -17.338800 2.446100 -3.271900 32.501000 0.468400 -0.728100 14.026700 -0.000000 -0.000000 0.000000 6.128600 2.615400 -32.554200 16.569600 -26.286900 3.894800 35.956500 -5.081900 -53.094100 0.000000 0.000000 0.000000 -7.125000 0.000000 0.000000 -72.836800 85.773100 68.744300 -0.000000 -0.000000 0.000000 -15.951600 -25.474300 50.800100 -115.065300 -57.487600 -81.524100 -33.278400 -35.353800 -28.468700 0.000000 0.000000 0.000000 7.125000 0.000000 -0.000000 -1.555100 -2.977300 -1.634400
-8.048814 17.437513 -1.200468 -56.730075 87.667719 -54.253727 0.000000 0.000000 0.000000 -17.089250 -1.139466 -6.868106 2.471373 9.785529 28.285088 0.806124 3.222674 -18.419733 0.232328 -3.078790 -8.500048 0.000000 0.000000 0.000000 24.711481 22.149531 -2.024808 -1.137367 -6.772948 19.044330 -3.672675 -27.750113 -52.877916 -6.651388 -15.031117 47.543236 2.684540 1.193890 -1.103739 0.676351 1.618213 -1.968951 -0.811079 0.786787 -1.345764 0.174762 -2.035213 -17.729991 2.543276 -3.155490 32.568608 0.534346 -0.669379 14.145490 0.000000 0.000000 0.000000 4.590046 4.763011 -29.545651 17.276323 -27.220429 4.213077 35.548646 -2.394335 -52.440474 0.000000 0.000000 0.000000 -7.125000 0.000000 0.000000 -63.471313 85.553580 59.430036 0.000000 0.000000 0.000000 -16.850476 -23.564358 50.238694 -105.459619 -59.038303 -73.342585 -32.574771 -33.361780 -27.115261 0.000000 0.000000 0.000000 7.125000 0.000000 0.000000 -1.413372 -1.297142 -1.445767
-8.082383 17.436060 -1.241550 -55.410736 87.624088 -52.958121 0.000000 0.000000 0.000000 -17.382056 -1.629949 -6.547054 2.404769 9.662508 27.890662 0.934051 3.467331 -19.815038 0.448639 -4.276202 -11.858168 0.000000 0.000000 0.000000 24.501564 22.237175 -2.170137 -1.138299 -6.775530 19.052069 -3.604191 -27.934646 -52.814463 -6.548306 -14.939238 47.144264 2.367666 1.256167 -1.038490 0.671660 1.701105 -1.913299 -0.639593 0.832434 -1.330890 -0.037115 -1.929385 -17.958718 2.595953 -2.951033 32.643388 0.626844 -0.598572 14.231126 0.000000 0.000000 0.000000 2.981343 5.319273 -26.615288 16.981051 -26.832686 4.078832 35.332121 0.156505 -51.561762 0.000000 0.000000 0.000000 -7.125000 0.000000 0.000000 -52.466651 85.269607 48.614871 0.000000 0.000000 0.000000 -17.696851 -21.474180 49.949999 -95.198521 -59.834902 -64.498463 -32.050405 -31.828932 -26.308485 0.000000 0.000000 0.000000 7.125000 0.000000 0.000000 -1.255541 -0.269783 -1.261630
-8.110001 17.435560 -1.284585 -55.181697 87.514617 -52.730885 0.000000 0.000000 0.000000 -17.659344 -2.428973 -6.074763 2.342262 9.545069 27.515892 1.079305 3.931468 -21.403336 0.709662 -5.359707 -14.943177 0.000000 0.000000 0.000000 24.373519 22.295490 -2.267215 -1.131933 -6.757320 18.998301 -3.521862 -28.132537 -52.720104 -6.436862 -14.838705 46.710871 2.260459 1.464197 -1.069008 0.541124 1.972972 -1.845700 -0.710985 0.969433 -1.234538 -0.096622 -1.966075 -18.157400 2.571116 -2.980685 32.669806 0.620887 -0.620954 14.288106 0.000000 0.000000 0.000000 3.271034 5.389459 -26.561747 16.736401 -26.508495 3.969191 35.196537 0.287837 -51.654116 0.000000 0.000000 0.000000 -7.125000 0.000000 0.000000 -53.498693 85.228880 49.565435 0.000000 0.000000 0.000000 -18.184348 -19.155621 49.426816 -84.908904 -59.828268 -55.596050 -31.781547 -30.347330 -25.119049 0.000000 0.000000 0.000000 7.125000 0.000000 0.000000 -1.307706 1.108539 -1.281884
-8.149555 17.437349 -1.326318 -62.104936 87.537496 -59.587777 0.000000 0.000000 0.000000 -17.845845 -3.412109 -5.720751 2.280246 9.426830 27.139947 1.276174 4.234871 -23.225597 1.379791 -7.307468 -20.686110 0.000000 0.000000 0.000000 24.241284 22.052873 -2.535129 -1.116351 -6.712101 18.865153 -3.454225 -28.248091 -52.604385 -6.401097 -14.806104 46.571096 2.273978 1.695885 -1.007466 0.305748 2.278336 -1.804287 -0.959828 1.119802 -1.208684 0.062769 -2.090319 -18.290048 2.500675 -3.199558 32.541356 0.523905 -0.708275 14.259971 0.000000 0.000000 0.000000 3.742262 5.249571 -26.705109 16.434555 -26.106025 3.835323 35.089673 0.665708 -51.899863 0.000000 0.000000 0.000000 -7.125000 0.000000 0.000000 -56.284533 85.249227 52.233713 0.000000 0.000000 0.000000 -18.480124 -16.706466 48.761280 -74.881965 -59.037302 -46.956210 -31.611178 -29.006480 -24.132984 0.000000 0.000000 0.000000 7.125000 0.000000 0.000000 -1.374686 2.239350 -1.320271
-8.196848 17.444710 -1.362466 -63.723941 87.501803 -60.961079 0.000000 0.000000 0.000000 -18.045858 -4.157913 -5.672840 2.224849 9.319433 26.799816 1.383103 4.702956 -24.354535 1.783036 -8.398525 -23.931297 0.000000 0.000000 0.000000 24.002748 22.080756 -2.919167 -1.090704 -6.637015 18.644449 -3.324532 -28.467231 -52.382224 -6.370985 -14.778423 46.453012 1.972514 1.803051 -1.046613 0.307070 2.419198 -1.754585 -0.787524 1.194639 -1.143466 -0.036238 -1.974988 -18.529945 2.313285 -2.944715 32.348788 0.504320 -0.647654 14.219781 0.000000 0.000000 0.000000 3.739229 5.116617 -26.300377 16.187601 -25.774120 3.727232 34.847978 0.616898 -51.630621 0.000000 0.000000 0.000000 -7.125000 0.000000 0.000000 -53.178354 85.054198 49.114783 0.000000 0.000000 0.000000 -18.945769 -14.641191 48.836014 -65.241869 -57.474624 -38.749293 -31.451234 -27.909400 -23.756299 0.000000 0.000000 0.000000 7.125000 0.000000 0.000000 -1.340699 2.695130 -1.276596
